KRSPY-parametric-NarrowBlackMinGrade-minXOPQ.ufo
<glyph name="one" format="2">
  <advance width="107.0"/>
  <unicode hex="0031"/>
  <outline>
    <contour>
      <point x="3.0" y="0.0" type="line"/>
      <point x="107.0" y="0.0" type="line" identifier="CURJAw79Zl"/>
      <point x="107.0" y="421.4794794794795" type="line" identifier="0DUCJo8xIi"/>
      <point x="56.0" y="421.4794794794795" type="line" identifier="5nmxQXofSG"/>
      <point x="56.0" y="1600.0" type="line" identifier="4rjIeWbSbx"/>
      <point x="0.0" y="1600.0" type="line"/>
      <point x="0.0" y="1178.5205205205204" type="line"/>
      <point x="54.0" y="1178.5205205205204" type="line"/>
      <point x="54.0" y="421.4794794794795" type="line"/>
      <point x="3.0" y="421.4794794794795" type="line"/>
    </contour>
  </outline>
</glyph>
<glyph name="two" format="2">
  <advance width="119.0"/>
  <unicode hex="0032"/>
  <outline>
    <contour>
      <point x="12.0" y="0.0" type="line"/>
      <point x="108.0" y="0.0" type="line" identifier="pzdvPTirLJ"/>
      <point x="108.0" y="442.6206206206206" type="line" identifier="91SxUS0iwG"/>
      <point x="106.0" y="442.6206206206206" type="line" identifier="fP7EN0pUcl"/>
      <point x="106.0" y="421.4794794794795" type="line" identifier="eb458Bdvng"/>
      <point x="14.0" y="421.4794794794795" type="line"/>
      <point x="14.0" y="496.45445445445444" type="line" identifier="9fjc25rkUx"/>
      <point x="103.08808808808809" y="984.3643643643643" type="line" identifier="yyb1NCCI5w"/>
      <point x="103.08808808808809" y="1600.0" type="line" identifier="5FogYRSgkk"/>
      <point x="15.0" y="1600.0" type="line" identifier="svlFvrau4c"/>
      <point x="15.0" y="986.1161161161161" type="line" identifier="LQ9fBsTy9K"/>
      <point x="17.0" y="986.1161161161161" type="line" identifier="jS6EyIAKtm"/>
      <point x="17.0" y="1178.5205205205204" type="line"/>
      <point x="101.08808808808809" y="1178.5205205205204" type="line" identifier="N6CMAjhNlU"/>
      <point x="101.08808808808809" y="985.3643643643643" type="line" identifier="yK1d5IcluK"/>
      <point x="12.0" y="498.45445445445444" type="line" identifier="teVKnpBcVb"/>
    </contour>
  </outline>
</glyph>
<glyph name="three" format="2">
  <advance width="128.0"/>
  <unicode hex="0033"/>
  <outline>
    <contour>
      <point x="17.0" y="0.0" type="line" identifier="O9abUc1nmN"/>
      <point x="112.0" y="0.0" type="line" identifier="kMJYMTfXCq"/>
      <point x="112.0" y="903.015015015015" type="line" identifier="su2XmdS8e8"/>
      <point x="83.0" y="903.015015015015" type="line" identifier="JQaOzDQqlF"/>
      <point x="83.0" y="903.2792792792793" type="line"/>
      <point x="104.0" y="970.1291291291291" type="line" identifier="S91TzLL02W"/>
      <point x="104.0" y="1600.0" type="line" identifier="xg8x2Ki40p"/>
      <point x="19.0" y="1600.0" type="line" identifier="pE1XSRiy68"/>
      <point x="19.0" y="1002.4014014014015" type="line" identifier="5lNstGRcSF"/>
      <point x="21.0" y="1002.4014014014015" type="line" identifier="AcE5xKDZfE"/>
      <point x="21.0" y="1169.4014014014015" type="line" identifier="7ogBYufWpl"/>
      <point x="102.0" y="1169.4014014014015" type="line" identifier="RHLvSX2Jv6"/>
      <point x="102.0" y="970.1291291291291" type="line" identifier="YUjTrmoWd9"/>
      <point x="81.0" y="903.2792792792793" type="line"/>
      <point x="81.0" y="903.015015015015" type="line" identifier="iic1IBkDqp"/>
      <point x="28.0" y="903.015015015015" type="line" identifier="lRLJEhXMlO"/>
      <point x="28.0" y="645.6796796796797" type="line" identifier="8aKgEELrVU"/>
      <point x="110.0" y="645.6796796796797" type="line" identifier="Dm8zjmbhNr"/>
      <point x="110.0" y="421.4794794794795" type="line" identifier="xv9CFHiFgB"/>
      <point x="19.0" y="421.4794794794795" type="line" identifier="YajKQV3MHP"/>
      <point x="19.0" y="542.5985985985985" type="line" identifier="36SchVkwze"/>
      <point x="17.0" y="542.5985985985985" type="line" identifier="tVui9PiOjA"/>
    </contour>
  </outline>
</glyph>
<glyph name="four" format="2">
  <advance width="115.0"/>
  <unicode hex="0034"/>
  <outline>
    <contour>
      <point x="82.0" y="0.0" type="line"/>
      <point x="84.0" y="0.0" type="line"/>
      <point x="84.0" y="574.902902902903" type="line"/>
      <point x="113.0" y="574.902902902903" type="line"/>
      <point x="113.0" y="996.3823823823824" type="line"/>
      <point x="84.0" y="996.3823823823824" type="line"/>
      <point x="84.0" y="1600.0" type="line"/>
      <point x="82.0" y="1600.0" type="line"/>
      <point x="82.0" y="996.3823823823824" type="line"/>
      <point x="6.0" y="996.3823823823824" type="line"/>
      <point x="6.0" y="1040.905905905906" type="line"/>
      <point x="52.11911911911912" y="1680.0" type="line"/>
      <point x="51.11911911911912" y="1680.0" type="line"/>
      <point x="4.0" y="1039.905905905906" type="line"/>
      <point x="4.0" y="574.902902902903" type="line"/>
      <point x="82.0" y="574.902902902903" type="line"/>
    </contour>
  </outline>
</glyph>
<glyph name="six" format="2">
  <advance width="122.0"/>
  <unicode hex="0036"/>
  <outline>
    <contour>
      <point x="12.088088088088089" y="0.0" type="line" identifier="uiw6aBUf4P"/>
      <point x="108.0" y="0.0" type="line" identifier="jtYkxiUX6G"/>
      <point x="108.0" y="919.5485485485485" type="line" identifier="2G5L37c87I"/>
      <point x="14.088088088088089" y="919.5485485485485" type="line"/>
      <point x="14.088088088088089" y="1074.2352352352352" type="line"/>
      <point x="23.73073073073073" y="1178.5205205205204" type="line"/>
      <point x="106.0" y="1178.5205205205204" type="line"/>
      <point x="106.0" y="1031.7117117117118" type="line"/>
      <point x="107.08808808808809" y="1031.7117117117118" type="line" identifier="Wuidbv6mUe"/>
      <point x="107.08808808808809" y="1600.0" type="line" identifier="oGvEEuxnYv"/>
      <point x="50.0" y="1600.0" type="line" identifier="xR3pEHbMJx"/>
      <point x="12.088088088088089" y="1075.2352352352352" type="line" identifier="KnMArb0tv8"/>
    </contour>
    <contour>
      <point x="106.0" y="571.022022022022" type="line"/>
      <point x="106.0" y="421.4794794794795" type="line"/>
      <point x="14.088088088088089" y="421.4794794794795" type="line"/>
      <point x="14.088088088088089" y="571.022022022022" type="line"/>
    </contour>
  </outline>
</glyph>
<glyph name="seven" format="2">
  <advance width="123.0"/>
  <unicode hex="0037"/>
  <outline>
    <contour>
      <point x="43.76176176176176" y="0.0" type="line"/>
      <point x="45.76176176176176" y="0.0" type="line" identifier="PiPrv7Kcoy"/>
      <point x="107.0" y="1162.7117117117118" type="line" identifier="PkvwNC9Tx1"/>
      <point x="107.0" y="1600.0" type="line" identifier="tgqM27bPOm"/>
      <point x="12.0" y="1600.0" type="line" identifier="36ml4xRICt"/>
      <point x="12.0" y="940.5205205205204" type="line" identifier="aaDZsh5Mah"/>
      <point x="14.0" y="940.5205205205204" type="line"/>
      <point x="14.0" y="1178.5205205205204" type="line"/>
      <point x="105.0" y="1178.5205205205204" type="line"/>
      <point x="105.0" y="1160.4164164164165" type="line"/>
    </contour>
  </outline>
</glyph>
<glyph name="eight" format="2">
  <advance width="160.0"/>
  <unicode hex="0038"/>
  <outline>
    <contour>
      <point x="86.88088088088088" y="634.8558558558559" type="line"/>
      <point x="132.0" y="570.6176176176176" type="line"/>
      <point x="132.0" y="421.4794794794795" type="line"/>
      <point x="28.0" y="421.4794794794795" type="line"/>
      <point x="28.0" y="570.6176176176176" type="line"/>
      <point x="73.11911911911912" y="634.8558558558559" type="line"/>
    </contour>
    <contour>
      <point x="89.7927927927928" y="799.0" type="line"/>
      <point x="89.7927927927928" y="801.0" type="line"/>
      <point x="131.0" y="843.0" type="line"/>
      <point x="131.0" y="1600.0" type="line"/>
      <point x="29.0" y="1600.0" type="line"/>
      <point x="29.0" y="843.0" type="line"/>
      <point x="72.03103103103103" y="801.0" type="line"/>
      <point x="72.03103103103103" y="799.0" type="line"/>
      <point x="26.0" y="754.0" type="line"/>
      <point x="26.0" y="0.0" type="line"/>
      <point x="134.0" y="0.0" type="line"/>
      <point x="134.0" y="754.0" type="line"/>
    </contour>
    <contour>
      <point x="73.11911911911912" y="965.1441441441441" type="line"/>
      <point x="31.0" y="1026.3823823823823" type="line"/>
      <point x="31.0" y="1178.5205205205204" type="line"/>
      <point x="129.0" y="1178.5205205205204" type="line"/>
      <point x="129.0" y="1026.3823823823823" type="line"/>
      <point x="86.88088088088088" y="965.1441441441441" type="line"/>
    </contour>
  </outline>
</glyph>
<glyph name="B" format="2">
  <advance width="123"/>
  <unicode hex="0042"/>
  <outline>
    <contour>
      <point x="16" y="0" type="line" identifier="hvY9r8RmLr"/>
      <point x="112" y="0" type="line" identifier="9QFpw7nfq7"/>
      <point x="112" y="762" type="line" identifier="543PerILpr"/>
      <point x="78" y="799" type="line" identifier="zhomauHW30"/>
      <point x="78" y="801" type="line" identifier="870ZhtaozS"/>
      <point x="109" y="843" type="line" identifier="eGKH52Jgnk"/>
      <point x="109" y="1600" type="line" identifier="FaP204GrdB"/>
      <point x="16" y="1600" type="line" identifier="JEev70GAj6"/>
    </contour>
    <contour>
      <point x="18" y="983" type="line" identifier="By7dfMihfe"/>
      <point x="18" y="1177" type="line" identifier="1p5hKrurVy"/>
      <point x="107" y="1177" type="line" identifier="Qby8aMtF2X"/>
      <point x="107" y="1026" type="line" identifier="9lW01gQyU2"/>
      <point x="76" y="983" type="line" identifier="xpxyvIzPoc"/>
    </contour>
    <contour>
      <point x="18" y="421" type="line" identifier="jaMSiLrCua"/>
      <point x="18" y="617" type="line" identifier="XSrxNd2axx"/>
      <point x="76" y="617" type="line" identifier="VyYlzRh5nq"/>
      <point x="110" y="579" type="line" identifier="lsRGatjQja"/>
      <point x="110" y="421" type="line" identifier="xhlDJ3CjD5"/>
    </contour>
  </outline>
</glyph>
<glyph name="C" format="2">
  <advance width="117.29029029029029"/>
  <unicode hex="0043"/>
  <outline>
    <contour>
      <point x="12.233233233233234" y="0.0" type="line" identifier="7lPhzTnk2Z"/>
      <point x="108.23323323323324" y="0.0" type="line" identifier="qJVLZGnkwh"/>
      <point x="108.23323323323324" y="587.1171171171171" type="line" identifier="nDnDHzAMXL"/>
      <point x="106.23323323323324" y="587.1171171171171" type="line" identifier="QX1V08aTu0"/>
      <point x="106.23323323323324" y="421.4794794794795" type="line" identifier="Y750RHTvDj"/>
      <point x="14.233233233233234" y="421.4794794794795" type="line" identifier="L2LsGnXiZ2"/>
      <point x="14.233233233233234" y="995.980980980981" type="line" identifier="sUWsr03vF4"/>
      <point x="28.14014014014014" y="1178.5205205205204" type="line" identifier="dbOUe6OhxL"/>
      <point x="105.23323323323324" y="1178.5205205205204" type="line" identifier="5BjRbcud80"/>
      <point x="105.23323323323324" y="855.5925925925926" type="line" identifier="fNVDqwQo2o"/>
      <point x="107.23323323323324" y="855.5925925925926" type="line" identifier="wLqQQx7QVN"/>
      <point x="107.23323323323324" y="1600.0" type="line" identifier="9eJelv8BOw"/>
      <point x="56.233233233233236" y="1600.0" type="line" identifier="lfZev3ICaC"/>
      <point x="12.233233233233234" y="996.0690690690691" type="line" identifier="V1EWIdPahq"/>
    </contour>
  </outline>
</glyph>
<glyph name="J" format="2">
  <advance width="118.02602602602603"/>
  <unicode hex="004A"/>
  <outline>
    <contour>
      <point x="45.528528528528525" y="0.0" type="line" identifier="jiO9eX9U07"/>
      <point x="100.52852852852853" y="0.0" type="line" identifier="wgpFs1yguc"/>
      <point x="100.52852852852853" y="1600.0" type="line" identifier="d5Di3vNzni"/>
      <point x="7.528528528528529" y="1600.0" type="line" identifier="TbrXnCyMEi"/>
      <point x="7.528528528528529" y="1178.5205205205204" type="line" identifier="AdYfGKx8QJ"/>
      <point x="98.52852852852853" y="1178.5205205205204" type="line" identifier="46RrD1WET2"/>
      <point x="98.52852852852853" y="421.4794794794795" type="line" identifier="zFXsE8BUYG"/>
      <point x="26.554554554554556" y="421.4794794794795" type="line" identifier="NQmE31PUns"/>
      <point x="6.616616616616617" y="765.4794794794796" type="line" identifier="qiXxY6YhCq"/>
      <point x="5.528528528528529" y="765.4794794794796" type="line" identifier="7exNZv1XSc"/>
    </contour>
  </outline>
</glyph>
<glyph name="M" format="2">
  <advance width="224.35235235235234"/>
  <unicode hex="004D"/>
  <outline>
    <contour>
      <point x="110.82382382382383" y="80.0" type="line" identifier="0Dn4Xpf57M"/>
      <point x="71.88588588588588" y="1178.5205205205204" type="line"/>
      <point x="33.17617617617618" y="1178.5205205205204" type="line"/>
      <point x="33.17617617617618" y="0.0" type="line"/>
      <point x="31.176176176176178" y="0.0" type="line"/>
      <point x="31.176176176176178" y="1600.0" type="line"/>
      <point x="58.38338338338338" y="1600.0" type="line"/>
      <point x="100.96896896896897" y="465.003003003003" type="line"/>
      <point x="123.38338338338339" y="465.003003003003" type="line" identifier="9aKZPM0HPh"/>
      <point x="165.96896896896897" y="1600.0" type="line"/>
      <point x="193.17617617617617" y="1600.0" type="line"/>
      <point x="193.17617617617617" y="0.0" type="line"/>
      <point x="191.17617617617617" y="0.0" type="line"/>
      <point x="191.17617617617617" y="1178.5205205205204" type="line"/>
      <point x="152.46646646646647" y="1178.5205205205204" type="line"/>
      <point x="113.52852852852853" y="80.0" type="line" identifier="spdoeeCFft"/>
    </contour>
  </outline>
</glyph>
<glyph name="N" format="2">
  <advance width="168.23323323323322"/>
  <unicode hex="004E"/>
  <outline>
    <contour>
      <point x="27.52852852852853" y="0.0" type="line" identifier="CkwYPPvJLv"/>
      <point x="29.52852852852853" y="0.0" type="line" identifier="oHTJsN7drZ"/>
      <point x="29.52852852852853" y="1205.8778778778778" type="line" identifier="wfBbYd10Pm"/>
      <point x="61.67867867867868" y="1205.8778778778778" type="line" identifier="MEnBDHq6zU"/>
      <point x="120.70470470470471" y="0.0" type="line" identifier="3Nbopwznvn"/>
      <point x="140.7047047047047" y="0.0" type="line" identifier="uKfuudIUvA"/>
      <point x="140.7047047047047" y="1600.0" type="line" identifier="XRdLFXiM4t"/>
      <point x="138.7047047047047" y="1600.0" type="line" identifier="MUSJPjCIXg"/>
      <point x="138.7047047047047" y="394.1221221221221" type="line" identifier="VILP20cFmq"/>
      <point x="103.55455455455456" y="394.1221221221221" type="line" identifier="z5b04GDwRN"/>
      <point x="44.528528528528525" y="1600.0" type="line" identifier="LL64NQ6WBE"/>
      <point x="27.52852852852853" y="1600.0" type="line" identifier="dzUaaP1sjt"/>
    </contour>
  </outline>
</glyph>
<glyph name="P" format="2">
  <advance width="142.17617617617617"/>
  <unicode hex="0050"/>
  <outline>
    <contour>
      <point x="31.176176176176178" y="0.0" type="line" identifier="EG08jqU5fb"/>
      <point x="33.17617617617618" y="0.0" type="line" identifier="osRzIFK2Cu"/>
      <point x="33.17617617617618" y="550.3793793793793" type="line" identifier="hIFVovVRwe"/>
      <point x="123.17617617617617" y="616.6176176176176" type="line" identifier="Tt6D8zYZmU"/>
      <point x="123.17617617617617" y="1600.0" type="line" identifier="6xW04auDFu"/>
      <point x="31.176176176176178" y="1600.0" type="line" identifier="eETO5GBD5v"/>
    </contour>
    <contour>
      <point x="33.17617617617618" y="917.1441441441441" type="line" identifier="PIBVN1PGv1"/>
      <point x="33.17617617617618" y="1178.5205205205204" type="line" identifier="IZIZQr2gYJ"/>
      <point x="121.17617617617617" y="1178.5205205205204" type="line" identifier="2c4LCF1E1R"/>
      <point x="121.17617617617617" y="958.6726726726727" type="line" identifier="1WCnzth1GX"/>
    </contour>
  </outline>
</glyph>
<glyph name="R" format="2">
  <advance width="154.0"/>
  <unicode hex="0052"/>
  <outline>
    <contour>
      <point x="33.0" y="919.5485485485485" type="line"/>
      <point x="33.0" y="1178.5205205205204" type="line"/>
      <point x="122.0" y="1178.5205205205204" type="line"/>
      <point x="122.0" y="962.5485485485485" type="line"/>
      <point x="91.0" y="919.5485485485485" type="line"/>
    </contour>
    <contour>
      <point x="128.0" y="0.0" type="line"/>
      <point x="128.0" y="670.8088088088089" type="line"/>
      <point x="94.0" y="707.8088088088089" type="line"/>
      <point x="94.0" y="709.8088088088089" type="line"/>
      <point x="124.0" y="751.8088088088089" type="line"/>
      <point x="124.0" y="1600.0" type="line"/>
      <point x="31.0" y="1600.0" type="line"/>
      <point x="31.0" y="0.0" type="line"/>
      <point x="33.0" y="0.0" type="line"/>
      <point x="33.0" y="498.0690690690691" type="line"/>
      <point x="91.0" y="498.0690690690691" type="line"/>
      <point x="126.0" y="460.0690690690691" type="line"/>
      <point x="126.0" y="0.0" type="line"/>
    </contour>
  </outline>
</glyph>
<glyph name="S" format="2">
  <advance width="131.05705705705705"/>
  <unicode hex="0053"/>
  <outline>
    <contour>
      <point x="20.35235235235235" y="0.0" type="line" identifier="09VlJ0BjUX"/>
      <point x="110.44044044044044" y="0.0" type="line" identifier="EagWihqFM8"/>
      <point x="110.44044044044044" y="996.8538538538538" type="line" identifier="KfNuQA7eZe"/>
      <point x="22.44044044044044" y="996.8538538538538" type="line" identifier="At364YZFEy"/>
      <point x="22.44044044044044" y="1205.8778778778778" type="line" identifier="BcuLfvaQKC"/>
      <point x="108.44044044044044" y="1205.8778778778778" type="line" identifier="3ZUkG35meB"/>
      <point x="108.44044044044044" y="1087.3383383383384" type="line" identifier="DTOJhFIl15"/>
      <point x="110.44044044044044" y="1087.3383383383384" type="line" identifier="9KDcrfQ5Ui"/>
      <point x="110.44044044044044" y="1600.0" type="line" identifier="SaF9ojRFrW"/>
      <point x="20.44044044044044" y="1600.0" type="line" identifier="F4sQEYelA8"/>
      <point x="20.44044044044044" y="620.96996996997" type="line" identifier="3sQ8t8BZ6b"/>
      <point x="108.44044044044044" y="620.96996996997" type="line" identifier="yiV6OCBLHg"/>
      <point x="108.44044044044044" y="421.4794794794795" type="line" identifier="9kdl9SYsn8"/>
      <point x="21.44044044044044" y="421.4794794794795" type="line" identifier="yZDWuX8LLe"/>
      <point x="21.44044044044044" y="529.3403403403404" type="line" identifier="jYb9001DTm"/>
      <point x="20.35235235235235" y="529.3403403403404" type="line" identifier="ho4DrS0rdW"/>
    </contour>
  </outline>
</glyph>
<glyph name="U" format="2">
  <advance width="153.26426426426426"/>
  <unicode hex="0055"/>
  <outline>
    <contour>
      <point x="121.0" y="1600.0" type="line" smooth="yes"/>
      <point x="121.0" y="421.4794794794795" type="line"/>
      <point x="36.52352352352352" y="421.4794794794795" type="line" smooth="yes"/>
      <point x="29.0" y="488.3823823823824" type="line" smooth="yes"/>
      <point x="29.0" y="1600.0" type="line"/>
      <point x="27.0" y="1600.0" type="line" smooth="yes"/>
      <point x="27.0" y="488.3823823823824" type="line" smooth="yes"/>
      <point x="71.0" y="0.0" type="line" smooth="yes"/>
      <point x="123.0" y="0.0" type="line" smooth="yes"/>
      <point x="123.0" y="1600.0" type="line" smooth="yes"/>
    </contour>
  </outline>
</glyph>
<glyph name="V" format="2">
  <advance width="153.26426426426426"/>
  <unicode hex="0056"/>
  <outline>
    <contour>
      <point x="29.52852852852853" y="1600.0" type="line" smooth="yes"/>
      <point x="29.52852852852853" y="421.4794794794795" type="line"/>
      <point x="113.91691691691692" y="421.4794794794795" type="line" smooth="yes"/>
      <point x="121.52852852852853" y="488.3823823823824" type="line" smooth="yes"/>
      <point x="121.52852852852853" y="1600.0" type="line"/>
      <point x="123.52852852852853" y="1600.0" type="line" smooth="yes"/>
      <point x="123.52852852852853" y="488.3823823823824" type="line" smooth="yes"/>
      <point x="78.52852852852853" y="0.0" type="line" smooth="yes"/>
      <point x="27.52852852852853" y="0.0" type="line" smooth="yes"/>
      <point x="27.52852852852853" y="1600.0" type="line" smooth="yes"/>
    </contour>
  </outline>
</glyph>
<glyph name="W" format="2">
  <advance width="246.0"/>
  <unicode hex="0057"/>
  <outline>
    <contour>
      <point x="31.0" y="1600.0" type="line" smooth="yes" identifier="12Pyby1xY2"/>
      <point x="29.0" y="1600.0" type="line" smooth="yes" identifier="5LJg4ajoG6"/>
      <point x="29.0" y="0.0" type="line" smooth="yes" identifier="ZqTZqAY3uY"/>
      <point x="81.0" y="0.0" type="line" smooth="yes" identifier="rCeQLyjlsN"/>
      <point x="123.0" y="432.79179179179175" type="line"/>
      <point x="123.0" y="432.79179179179175" type="line"/>
      <point x="123.0" y="0.0" type="line" smooth="yes" identifier="Pkl7cZ37MU"/>
      <point x="175.0" y="0.0" type="line" smooth="yes" identifier="R4lklfJsHA"/>
      <point x="219.0" y="488.3823823823824" type="line" smooth="yes" identifier="7g7f8Wu7K4"/>
      <point x="219.0" y="1600.0" type="line" smooth="yes" identifier="RTOJW56qXy"/>
      <point x="217.0" y="1600.0" type="line" identifier="JfSFAkWGZC"/>
      <point x="217.0" y="487.55855855855856" type="line" smooth="yes" identifier="WWvGwSpq0g"/>
      <point x="210.3883883883884" y="421.4794794794795" type="line" smooth="yes" identifier="oee4nqI8Wl"/>
      <point x="125.0" y="421.4794794794795" type="line" identifier="Ljn2lpvpG8"/>
      <point x="125.0" y="456.5015015015015" type="line"/>
      <point x="125.91191191191191" y="1326.4264264264264" type="line" smooth="yes"/>
      <point x="123.91191191191191" y="1326.4264264264264" type="line"/>
      <point x="123.0" y="459.5015015015015" type="line"/>
      <point x="122.0" y="459.5015015015015" type="line"/>
      <point x="116.38838838838839" y="421.4794794794795" type="line" identifier="GlWB6PG54Z"/>
      <point x="31.0" y="421.4794794794795" type="line" identifier="iqeTRv7HXg"/>
    </contour>
  </outline>
</glyph>
<glyph name="X" format="2">
  <advance width="160.0"/>
  <unicode hex="0058"/>
  <outline>
    <contour>
      <point x="86.88088088088088" y="589.2602602602602" type="line"/>
      <point x="132.0" y="543.2602602602602" type="line"/>
      <point x="132.0" y="0.0" type="line"/>
      <point x="134.0" y="0.0" type="line"/>
      <point x="134.0" y="754.0" type="line"/>
      <point x="88.88088088088088" y="799.0" type="line"/>
      <point x="88.88088088088088" y="801.0" type="line"/>
      <point x="130.0" y="843.0" type="line"/>
      <point x="130.0" y="1600.0" type="line"/>
      <point x="128.91191191191191" y="1600.0" type="line"/>
      <point x="128.91191191191191" y="1053.7397397397397" type="line"/>
      <point x="86.88088088088088" y="1010.7397397397398" type="line"/>
      <point x="73.11911911911912" y="1010.7397397397398" type="line"/>
      <point x="31.08808808808809" y="1053.7397397397397" type="line"/>
      <point x="31.08808808808809" y="1600.0" type="line"/>
      <point x="30.0" y="1600.0" type="line"/>
      <point x="30.0" y="843.0" type="line"/>
      <point x="71.11911911911912" y="801.0" type="line"/>
      <point x="71.11911911911912" y="799.0" type="line"/>
      <point x="26.0" y="754.0" type="line"/>
      <point x="26.0" y="0.0" type="line"/>
      <point x="28.0" y="0.0" type="line"/>
      <point x="28.0" y="543.2602602602602" type="line"/>
      <point x="73.11911911911912" y="589.2602602602602" type="line"/>
    </contour>
  </outline>
</glyph>
<glyph name="C.wide" format="2">
  <advance width="117.29029029029029"/>
  <outline>
    <contour>
      <point x="12.233233233233234" y="0.0" type="line" identifier="7lPhzTnk2Z"/>
      <point x="108.23323323323324" y="0.0" type="line" identifier="qJVLZGnkwh"/>
      <point x="108.23323323323324" y="421.4794794794795" type="line" identifier="Y750RHTvDj"/>
      <point x="14.233233233233234" y="421.4794794794795" type="line" identifier="L2LsGnXiZ2"/>
      <point x="14.233233233233234" y="995.980980980981" type="line" identifier="sUWsr03vF4"/>
      <point x="28.14014014014014" y="1178.5205205205204" type="line" identifier="dbOUe6OhxL"/>
      <point x="107.23323323323324" y="1178.5205205205204" type="line" identifier="5BjRbcud80"/>
      <point x="107.23323323323324" y="1600.0" type="line" identifier="9eJelv8BOw"/>
      <point x="56.233233233233236" y="1600.0" type="line" identifier="lfZev3ICaC"/>
      <point x="12.233233233233234" y="996.0690690690691" type="line" identifier="V1EWIdPahq"/>
    </contour>
  </outline>
</glyph>
<glyph name="E.wide" format="2">
  <advance width="139.44044044044045"/>
  <outline>
    <contour>
      <point x="31.176176176176178" y="0.0" type="line" identifier="fZynkQ4XHB"/>
      <point x="120.17617617617617" y="0.0" type="line" identifier="FAQNpgUPxV"/>
      <point x="120.17617617617617" y="404.15315315315314" type="line" identifier="5cgTYOhATF"/>
      <point x="33.17617617617618" y="404.15315315315314" type="line" identifier="bWs42DaCgU"/>
      <point x="33.17617617617618" y="607.4984984984985" type="line" identifier="VtD2aADJmn"/>
      <point x="118.64764764764764" y="607.4984984984985" type="line" identifier="PpbsFdHAnS"/>
      <point x="118.64764764764764" y="993.4134134134134" type="line" identifier="8WuC5p8Ax5"/>
      <point x="33.17617617617618" y="993.4134134134134" type="line" identifier="m39IWn9ntA"/>
      <point x="33.17617617617618" y="1205.8778778778778" type="line" identifier="gQ21I4SHQg"/>
      <point x="119.17617617617617" y="1205.8778778778778" type="line" identifier="eqNb2VTwYs"/>
      <point x="119.17617617617617" y="1600.0" type="line" identifier="qYRmo14Il5"/>
      <point x="31.176176176176178" y="1600.0" type="line" identifier="HmJIcnLWfC"/>
    </contour>
  </outline>
</glyph>
<glyph name="F.wide" format="2">
  <advance width="137.91191191191191"/>
  <outline>
    <contour>
      <point x="31.176176176176178" y="0.0" type="line" identifier="oAgH2tA6DJ"/>
      <point x="33.17617617617618" y="0.0" type="line" identifier="zCZyMcW5ho"/>
      <point x="33.17617617617618" y="352.1631631631632" type="line" identifier="yHYqkMd7LI"/>
      <point x="117.17617617617617" y="352.1631631631632" type="line" identifier="NmB7yyQuio"/>
      <point x="117.17617617617617" y="773.6426426426426" type="line" identifier="wQk2C8zPHh"/>
      <point x="33.17617617617618" y="773.6426426426426" type="line" identifier="4cFHKQfHDt"/>
      <point x="33.17617617617618" y="1178.5205205205204" type="line" identifier="ZvzwyrcwpS"/>
      <point x="118.17617617617617" y="1178.5205205205204" type="line" identifier="4E754ovOIe"/>
      <point x="118.17617617617617" y="1600.0" type="line" identifier="NUrIjqOB7J"/>
      <point x="31.176176176176178" y="1600.0" type="line" identifier="TBAYuCfUFX"/>
    </contour>
  </outline>
</glyph>
<glyph name="G.wide" format="2">
  <advance width="117.02602602602603"/>
  <outline>
    <contour>
      <point x="12.40940940940941" y="0.0" type="line" identifier="7lPhzTnk2Z"/>
      <point x="108.4094094094094" y="0.0" type="line" identifier="qJVLZGnkwh"/>
      <point x="108.4094094094094" y="928.6676676676677" type="line" identifier="uek1NNj7De"/>
      <point x="46.93793793793794" y="928.6676676676677" type="line" identifier="qcvimxjndX"/>
      <point x="46.93793793793794" y="589.2602602602602" type="line" identifier="EARaY3Su65"/>
      <point x="106.4094094094094" y="589.2602602602602" type="line" identifier="4m6dHLVhZq"/>
      <point x="106.4094094094094" y="421.4794794794795" type="line" identifier="Y750RHTvDj"/>
      <point x="14.40940940940941" y="421.4794794794795" type="line" identifier="L2LsGnXiZ2"/>
      <point x="14.40940940940941" y="1068.022022022022" type="line" identifier="sUWsr03vF4"/>
      <point x="24.668668668668673" y="1178.5205205205204" type="line" identifier="dbOUe6OhxL"/>
      <point x="107.4094094094094" y="1178.5205205205204" type="line" identifier="5BjRbcud80"/>
      <point x="107.4094094094094" y="1600.0" type="line" identifier="9eJelv8BOw"/>
      <point x="56.409409409409406" y="1600.0" type="line" identifier="lfZev3ICaC"/>
      <point x="12.40940940940941" y="1069.022022022022" type="line" identifier="V1EWIdPahq"/>
    </contour>
  </outline>
</glyph>
<glyph name="K.alt" format="2">
  <advance width="129.40940940940942"/>
  <outline>
    <contour>
      <point x="19.4974974974975" y="0.0" type="line" identifier="wmNm7XZsaF"/>
      <point x="19.4974974974975" y="589.2602602602602" type="line" identifier="O22liaP9Qk"/>
      <point x="66.37837837837839" y="589.2602602602602" type="line" identifier="ELFBWIb1vd"/>
      <point x="111.4974974974975" y="545.022022022022" type="line" identifier="DzXo67YEfw"/>
      <point x="111.4974974974975" y="0.0" type="line" identifier="aKpYWD78l2"/>
      <point x="113.4974974974975" y="0.0" type="line" identifier="ChS7KlqGi6"/>
      <point x="113.4974974974975" y="755.7617617617618" type="line" identifier="sWLgkU8Vey"/>
      <point x="68.46646646646647" y="799.0" type="line" identifier="Of0iQc0wBG"/>
      <point x="68.46646646646647" y="801.0" type="line" identifier="j4jnmtDJYB"/>
      <point x="110.4974974974975" y="1600.0" type="line" identifier="dMJ1ywOKQQ"/>
      <point x="108.4974974974975" y="1600.0" type="line" identifier="08OWjR2YBJ"/>
      <point x="77.4094094094094" y="1010.7397397397398" type="line" identifier="g4YLdZEoM3"/>
      <point x="19.4974974974975" y="1010.7397397397398" type="line" identifier="uZuki3Isec"/>
      <point x="19.4974974974975" y="1600.0" type="line" identifier="nRfcNgqJ4H"/>
      <point x="17.4974974974975" y="1600.0" type="line" identifier="3XJlWt89ad"/>
      <point x="17.4974974974975" y="0.0" type="line" identifier="wdbO8kCovY"/>
    </contour>
  </outline>
</glyph>
<glyph name="R.alt" format="2">
  <advance width="154.44044044044045"/>
  <outline>
    <contour>
      <point x="33.17617617617618" y="919.5485485485485" type="line"/>
      <point x="33.17617617617618" y="1178.5205205205204" type="line"/>
      <point x="122.17617617617617" y="1178.5205205205204" type="line"/>
      <point x="122.17617617617617" y="919.5485485485485" type="line"/>
    </contour>
    <contour>
      <point x="137.0" y="0.0" type="line"/>
      <point x="85.61661661661661" y="607.4984984984985" type="line"/>
      <point x="124.17617617617617" y="662.2132132132132" type="line"/>
      <point x="124.17617617617617" y="1600.0" type="line"/>
      <point x="31.176176176176178" y="1600.0" type="line"/>
      <point x="31.176176176176178" y="0.0" type="line"/>
      <point x="33.17617617617618" y="0.0" type="line"/>
      <point x="33.17617617617618" y="498.0690690690691" type="line"/>
      <point x="92.73573573573573" y="498.0690690690691" type="line"/>
      <point x="135.0" y="0.0" type="line"/>
    </contour>
  </outline>
</glyph>
<glyph name="S.alt" format="2">
  <advance width="130.0"/>
  <outline>
    <contour>
      <point x="17.0" y="0.0" type="line" identifier="09VlJ0BjUX"/>
      <point x="105.0" y="0.0" type="line" identifier="EagWihqFM8"/>
      <point x="105.0" y="983.3823823823824" type="line" identifier="KfNuQA7eZe"/>
      <point x="17.0" y="983.3823823823824" type="line" identifier="At364YZFEy"/>
      <point x="17.0" y="1076.1411411411411" type="line"/>
      <point x="25.994994994994997" y="1178.5205205205204" type="line"/>
      <point x="103.0" y="1178.5205205205204" type="line" identifier="3ZUkG35meB"/>
      <point x="103.0" y="1068.4984984984985" type="line" identifier="DTOJhFIl15"/>
      <point x="105.0" y="1068.4984984984985" type="line" identifier="9KDcrfQ5Ui"/>
      <point x="105.0" y="1600.0" type="line" identifier="SaF9ojRFrW"/>
      <point x="55.0" y="1600.0" type="line"/>
      <point x="15.0" y="1076.1411411411411" type="line"/>
      <point x="15.0" y="616.6176176176176" type="line" identifier="3sQ8t8BZ6b"/>
      <point x="103.0" y="616.6176176176176" type="line" identifier="yiV6OCBLHg"/>
      <point x="103.0" y="421.4794794794795" type="line" identifier="9kdl9SYsn8"/>
      <point x="19.0" y="421.4794794794795" type="line" identifier="yZDWuX8LLe"/>
      <point x="19.0" y="524.7807807807808" type="line" identifier="jYb9001DTm"/>
      <point x="17.0" y="524.7807807807808" type="line" identifier="ho4DrS0rdW"/>
    </contour>
  </outline>
</glyph>
<glyph name="Z.wide" format="2">
  <advance width="119.0"/>
  <outline>
    <contour>
      <point x="12.0" y="0.0" type="line"/>
      <point x="108.0" y="0.0" type="line" identifier="pzdvPTirLJ"/>
      <point x="108.0" y="421.4794794794795" type="line"/>
      <point x="14.0" y="421.4794794794795" type="line"/>
      <point x="14.0" y="559.2882882882883" type="line"/>
      <point x="119.5025025025025" y="1168.126126126126" type="line" identifier="yyb1NCCI5w"/>
      <point x="119.5025025025025" y="1600.0" type="line" identifier="5FogYRSgkk"/>
      <point x="15.0" y="1600.0" type="line" identifier="svlFvrau4c"/>
      <point x="15.0" y="1178.5205205205204" type="line"/>
      <point x="113.85485485485485" y="1178.5205205205204" type="line"/>
      <point x="113.85485485485485" y="1151.7117117117118" type="line"/>
      <point x="12.0" y="562.2882882882883" type="line" identifier="teVKnpBcVb"/>
    </contour>
  </outline>
</glyph>
